<svg xmlns="http://www.w3.org/2000/svg" width="269" height="34" fill="none" viewBox="0 0 269 34">
  <g clip-path="url(#clip0_0_25)">
    <path fill="gray" fill-rule="evenodd" d="M68.94 7.068h-1.855a.885.885 0 00-.885.885v19.201c0 .49.396.886.886.886h1.854a.886.886 0 00.885-.886v-19.2a.885.885 0 00-.885-.886zM76.747 7.068h-1.855a.885.885 0 00-.885.885v19.201c0 .49.396.886.886.886h1.854a.886.886 0 00.885-.886v-19.2a.885.885 0 00-.885-.886M133.514 7.068h-1.855a.885.885 0 00-.885.885v19.201c0 .49.396.886.885.886h1.855a.886.886 0 00.885-.886v-19.2a.885.885 0 00-.885-.886M125.689 12.762h-1.855a.885.885 0 00-.885.885v13.508c0 .488.396.885.886.885h1.854a.885.885 0 00.885-.885V13.647a.885.885 0 00-.885-.885M95.234 7.068H79.987a.885.885 0 00-.885.885v1.65c0 .488.397.885.885.885h5.768v16.666c0 .49.397.886.886.886h1.936a.886.886 0 00.885-.886V10.488h5.772a.886.886 0 00.885-.886V7.953a.885.885 0 00-.885-.885" clip-rule="evenodd"/>
    <path fill="gray" fill-rule="evenodd" d="M103.108 11.95a.843.843 0 00-.101.006l.001-.002c-2.238.258-3.75 1.757-4.617 3.832v-2.139a.886.886 0 00-.886-.885h-1.854a.885.885 0 00-.885.885v13.507c0 .49.396.885.885.885h1.854a.886.886 0 00.886-.885v-5.137c0-3.846 1.866-5.902 4.625-6.217h-.001c.551-.064.978-.532.978-1.1v-1.865a.885.885 0 00-.885-.885M115.421 22.318c0 1.978-1.798 3.326-4.195 3.326-1.707 0-3.055-.84-3.055-2.337v-.06c0-1.528 1.348-2.457 3.625-2.457 1.408 0 2.696.27 3.625.629v.899zm-3.445-10.336c-2.201 0-3.768.394-5.261.994a.886.886 0 00-.496 1.098l-.003-.004.432 1.272.001-.001a.886.886 0 001.144.534c1.131-.408 2.258-.658 3.673-.658 2.517 0 3.895 1.199 3.895 3.386v.299c-1.228-.39-2.457-.658-4.374-.658-3.685 0-6.411 1.677-6.411 5.182v.06c0 3.176 2.636 4.884 5.632 4.884 2.397 0 4.045-.99 5.123-2.277v1.062c0 .489.397.885.885.885h1.825a.885.885 0 00.885-.885v-8.492c0-4.224-2.277-6.681-6.95-6.681zM126.775 8.72a2.013 2.013 0 10-4.025 0 2.013 2.013 0 004.025 0M145.086 18.693c-1.858-.6-3.565-1.08-3.565-2.217v-.06c0-.93.809-1.588 2.217-1.588 1.111 0 2.435.406 3.739 1.089a.881.881 0 001.143-.34l.489-.877c.087-.157.138-.352.138-.545 0-.427-.243-.798-.598-.983h.001c-1.49-.765-3.216-1.22-4.823-1.22-3.145 0-5.632 1.827-5.632 4.824v.06c0 3.025 2.607 3.984 4.943 4.643 1.858.569 3.536.989 3.536 2.217v.06c0 1.049-.899 1.708-2.457 1.708-1.4 0-2.98-.495-4.486-1.463h-.001a.885.885 0 00-1.196.279l-.001-.003-.536.814h.001a1.103 1.103 0 00.29 1.496c1.808 1.154 3.911 1.753 5.839 1.753 3.296 0 5.872-1.648 5.872-4.974v-.06c0-2.845-2.606-3.894-4.913-4.613M54.153 11.322l3.595 8.39.39.945h-7.97l.39-.945 3.595-8.39zm10.336 15.485L56.034 7.45l-.001.001a.886.886 0 00-.813-.533h-2.132a.885.885 0 00-.813.533h-.001l-8.457 19.357v-.002a.886.886 0 00.815 1.233h1.544c.543 0 1.008-.325 1.215-.79l1.417-3.327h10.692l1.417 3.326c.207.466.672.791 1.215.791h1.543a.886.886 0 00.815-1.233z" clip-rule="evenodd"/>
    <path fill="#428813" fill-rule="evenodd" d="M38.389 28.427c-6.229-6.575-19.576-9.323-28.1-5.211l8.917-12.35 4.26 6.744a.821.821 0 001.15.266h.002l.01-.007a.014.014 0 00.004-.003l3.214-2.15s5.013 5.397 7.758 8.345l.008.008.003.004.001-.001a.31.31 0 00.522-.224c0-.052-.014-.1-.037-.143l.001-.001c-1.61-2.817-4.489-7.802-6.886-11.93-.411-.703-.894-.815-1.597-.354l-2.172 1.492-5.478-8.467-.029-.044-.009-.013h-.002a.941.941 0 00-.76-.388.943.943 0 00-.717.335h-.004a1.957 1.957 0 00-.041.055c-.01.013-.02.025-.028.038A9210.125 9210.125 0 01.131 28.836l.001.002a.687.687 0 00.554 1.088.665.665 0 00.298-.072l.002.002c.157-.075.324-.165.491-.256 5.09-2.633 16.52-6.472 24.42-.419 3.469 2.944 15.569 2.28 12.492-.754" clip-rule="evenodd"/>
    <path fill="#CCC" d="M165.075 14.75c1.717 0 3.033.433 3.95 1.3.917.85 1.375 2.117 1.375 3.8V28h-1.7v-2.05c-.4.683-.992 1.217-1.775 1.6-.767.383-1.683.575-2.75.575-1.467 0-2.633-.35-3.5-1.05-.867-.7-1.3-1.625-1.3-2.775 0-1.117.4-2.017 1.2-2.7.817-.683 2.108-1.025 3.875-1.025h4.175v-.8c0-1.133-.317-1.992-.95-2.575-.633-.6-1.558-.9-2.775-.9-.833 0-1.633.142-2.4.425a5.877 5.877 0 00-1.975 1.125l-.8-1.325c.667-.567 1.467-1 2.4-1.3a9.118 9.118 0 012.95-.475zm-.625 11.975c1 0 1.858-.225 2.575-.675.717-.467 1.25-1.133 1.6-2V21.9H164.5c-2.25 0-3.375.783-3.375 2.35 0 .767.292 1.375.875 1.825.583.433 1.4.65 2.45.65zm17.696.475c-.333.3-.75.533-1.25.7-.483.15-.992.225-1.525.225-1.233 0-2.183-.333-2.85-1-.667-.667-1-1.608-1-2.825v-7.95h-2.35v-1.5h2.35v-2.875h1.775v2.875h4v1.5h-4v7.85c0 .783.192 1.383.575 1.8.4.4.967.6 1.7.6.367 0 .717-.058 1.05-.175.35-.117.65-.283.9-.5l.625 1.275zm10.149-16.7h1.85v15.9h9.8V28h-11.65V10.5zm26.002 4.35V28h-1.7v-2.4a4.963 4.963 0 01-1.925 1.875c-.817.433-1.75.65-2.8.65-1.717 0-3.075-.475-4.075-1.425-.984-.967-1.475-2.375-1.475-4.225V14.85h1.775v7.45c0 1.383.341 2.433 1.025 3.15.683.717 1.658 1.075 2.925 1.075 1.383 0 2.475-.417 3.275-1.25.8-.85 1.2-2.025 1.2-3.525v-6.9h1.775zm11.671-.1c1.65 0 2.958.483 3.925 1.45.983.95 1.475 2.342 1.475 4.175V28h-1.775v-7.45c0-1.367-.342-2.408-1.025-3.125-.683-.717-1.658-1.075-2.925-1.075-1.417 0-2.542.425-3.375 1.275-.817.833-1.225 1.992-1.225 3.475V28h-1.775V14.85h1.7v2.425a4.87 4.87 0 012-1.85c.867-.45 1.867-.675 3-.675zm15.718 13.375c-1.3 0-2.467-.283-3.5-.85a6.196 6.196 0 01-2.4-2.375c-.584-1.033-.875-2.192-.875-3.475s.291-2.433.875-3.45a6.196 6.196 0 012.4-2.375c1.033-.567 2.2-.85 3.5-.85 1.133 0 2.141.225 3.025.675a4.948 4.948 0 012.125 1.925l-1.325.9a4.06 4.06 0 00-1.65-1.45 4.797 4.797 0 00-2.175-.5c-.95 0-1.809.217-2.575.65a4.5 4.5 0 00-1.775 1.8c-.417.783-.625 1.675-.625 2.675 0 1.017.208 1.917.625 2.7a4.719 4.719 0 001.775 1.8c.766.417 1.625.625 2.575.625.783 0 1.508-.158 2.175-.475a4.06 4.06 0 001.65-1.45l1.325.9a5.112 5.112 0 01-2.125 1.95c-.9.433-1.909.65-3.025.65zm15.141-13.375c1.65 0 2.959.483 3.925 1.45.984.95 1.475 2.342 1.475 4.175V28h-1.775v-7.45c0-1.367-.341-2.408-1.025-3.125-.683-.717-1.658-1.075-2.925-1.075-1.416 0-2.541.425-3.375 1.275-.816.833-1.225 1.992-1.225 3.475V28h-1.775V9.45h1.775v7.7a4.817 4.817 0 012-1.775c.85-.417 1.825-.625 2.925-.625z"/>
  </g>
  <defs>
    <clipPath id="clip0_0_25">
      <path fill="#fff" d="M0 0h269v34H0z"/>
    </clipPath>
  </defs>
</svg>
