<svg xmlns="http://www.w3.org/2000/svg" width="15" height="16" fill="none" viewBox="0 0 15 16">
  <path stroke="#428A13" stroke-linecap="round" stroke-width="1.295" d="M13.601 14.476L8.8 9.675"/>
  <mask id="a" width="11" height="12" x="0" y="0" maskUnits="userSpaceOnUse" style="mask-type:alpha">
    <path fill="#fff" fill-rule="evenodd" d="M0 .875h10.626v10.626H0V.875z" clip-rule="evenodd"/>
  </mask>
  <g mask="url(#a)">
    <path fill="#428A13" d="M5.313.375A5.814 5.814 0 00-.5 6.188h1a4.814 4.814 0 014.813-4.813v-1zM-.5 6.188a5.814 5.814 0 005.813 5.813v-1A4.814 4.814 0 01.5 6.188h-1zm5.813 5.813a5.813 5.813 0 005.813-5.813h-1a4.813 4.813 0 01-4.813 4.813v1zm5.813-5.813A5.813 5.813 0 005.313.375v1a4.813 4.813 0 014.813 4.813h1zm-2.133 0a3.685 3.685 0 01-3.68 3.68v1c2.58 0 4.68-2.1 4.68-4.68h-1zm-3.68 3.68a3.684 3.684 0 01-3.68-3.68h-1c0 2.58 2.099 4.68 4.68 4.68v-1zm-3.68-3.68c0-2.029 1.651-3.68 3.68-3.68v-1a4.684 4.684 0 00-4.68 4.68h1zm3.68-3.68a3.685 3.685 0 013.68 3.68h1c0-2.58-2.1-4.68-4.68-4.68v1z"/>
  </g>
</svg>
